<svg xmlns="http://www.w3.org/2000/svg" xmlns:xlink="http://www.w3.org/1999/xlink" width="500" zoomAndPan="magnify" viewBox="0 0 375 374.999991" height="500" preserveAspectRatio="xMidYMid meet" version="1.0"><defs><g/><clipPath id="44bb358ec1"><path d="M 187.5 0 C 83.945312 0 0 83.945312 0 187.5 C 0 291.054688 83.945312 375 187.5 375 C 291.054688 375 375 291.054688 375 187.5 C 375 83.945312 291.054688 0 187.5 0 Z M 187.5 0 " clip-rule="nonzero"/></clipPath><clipPath id="db6eb9dfd8"><path d="M 0 0 L 375 0 L 375 375 L 0 375 Z M 0 0 " clip-rule="nonzero"/></clipPath><clipPath id="8e4c7af6b6"><path d="M 187.5 0 C 83.945312 0 0 83.945312 0 187.5 C 0 291.054688 83.945312 375 187.5 375 C 291.054688 375 375 291.054688 375 187.5 C 375 83.945312 291.054688 0 187.5 0 Z M 187.5 0 " clip-rule="nonzero"/></clipPath><clipPath id="f33784b60c"><rect x="0" width="375" y="0" height="375"/></clipPath><clipPath id="91fdd3eb4a"><path d="M 148 26 L 192.320312 26 L 192.320312 131 L 148 131 Z M 148 26 " clip-rule="nonzero"/></clipPath><clipPath id="94b8ffd405"><rect x="0" width="45" y="0" height="105"/></clipPath><clipPath id="7983d0534c"><rect x="0" width="193" y="0" height="306"/></clipPath></defs><g clip-path="url(#44bb358ec1)"><g transform="matrix(1, 0, 0, 1, 0, 0)"><g clip-path="url(#f33784b60c)"><g clip-path="url(#db6eb9dfd8)"><g clip-path="url(#8e4c7af6b6)"><rect x="-82.5" width="540" fill="#191919" height="539.999987" y="-82.499998" fill-opacity="1"/></g></g></g></g></g><g transform="matrix(1, 0, 0, 1, 106, 18)"><g clip-path="url(#7983d0534c)"><g fill="#ffffff" fill-opacity="1"><g transform="translate(2.485038, 237.258312)"><g><path d="M 8.578125 0 L 8.578125 -2.25 L 11.5 -2.25 C 23.84375 -2.25 30.015625 -7.664062 30.015625 -18.5 L 30.015625 -143.5 C 30.015625 -153.726562 23.84375 -158.84375 11.5 -158.84375 L 8.578125 -158.84375 L 8.578125 -161.109375 L 74.234375 -161.109375 L 74.234375 -158.84375 L 71.296875 -158.84375 C 58.960938 -158.84375 52.796875 -153.429688 52.796875 -142.609375 L 52.796875 -66.796875 L 110.34375 -132 C 118.164062 -140.726562 122.078125 -147.117188 122.078125 -151.171875 C 122.078125 -156.140625 115.003906 -158.625 100.859375 -158.625 L 100.859375 -161.109375 L 150.734375 -161.109375 L 150.734375 -158.625 C 145.617188 -158.625 140.726562 -157.082031 136.0625 -154 C 131.394531 -150.914062 125.453125 -145.3125 118.234375 -137.1875 L 83.484375 -98.15625 L 133.125 -27.75 C 140.039062 -17.976562 145.414062 -11.285156 149.25 -7.671875 C 153.09375 -4.054688 156.742188 -2.25 160.203125 -2.25 L 160.65625 -2.25 L 160.65625 0 L 158.171875 0 C 150.648438 0 144.441406 -0.300781 139.546875 -0.90625 C 134.660156 -1.507812 130.640625 -2.5625 127.484375 -4.0625 C 124.328125 -5.5625 121.46875 -7.628906 118.90625 -10.265625 C 116.351562 -12.898438 113.648438 -16.25 110.796875 -20.3125 L 68.375 -81 L 52.796875 -63.171875 L 52.796875 -18.5 C 52.796875 -7.664062 58.960938 -2.25 71.296875 -2.25 L 74.234375 -2.25 L 74.234375 0 Z M 8.578125 0 "/></g></g></g><g clip-path="url(#91fdd3eb4a)"><g transform="matrix(1, 0, 0, 1, 148, 26)"><g clip-path="url(#94b8ffd405)"><g fill="#ffffff" fill-opacity="1"><g transform="translate(0.366348, 81.671199)"><g><path d="M 3.921875 0 L 3.921875 -5.609375 L 15.0625 -17.6875 C 17.625 -20.445312 19.722656 -22.890625 21.359375 -25.015625 C 23.003906 -27.148438 24.285156 -29.140625 25.203125 -30.984375 C 26.128906 -32.828125 26.769531 -34.628906 27.125 -36.390625 C 27.488281 -38.160156 27.671875 -40.046875 27.671875 -42.046875 C 27.671875 -46.660156 27.03125 -49.953125 25.75 -51.921875 C 24.46875 -53.898438 22.421875 -54.890625 19.609375 -54.890625 C 16.578125 -54.890625 14.445312 -53.773438 13.21875 -51.546875 C 11.988281 -49.316406 11.375 -45.585938 11.375 -40.359375 C 9.53125 -40.359375 7.96875 -40.726562 6.6875 -41.46875 C 5.40625 -42.21875 4.765625 -43.613281 4.765625 -45.65625 C 4.765625 -48.53125 6.070312 -50.914062 8.6875 -52.8125 C 11.300781 -54.707031 14.96875 -55.65625 19.6875 -55.65625 C 24.757812 -55.65625 28.648438 -54.472656 31.359375 -52.109375 C 34.078125 -49.753906 35.4375 -46.554688 35.4375 -42.515625 C 35.4375 -40.921875 35.164062 -39.316406 34.625 -37.703125 C 34.09375 -36.085938 33.109375 -34.289062 31.671875 -32.3125 C 30.234375 -30.34375 28.21875 -28.015625 25.625 -25.328125 C 23.039062 -22.640625 19.703125 -19.398438 15.609375 -15.609375 L 5.375 -6.15625 L 29.59375 -6.15625 C 32.050781 -6.15625 33.765625 -6.585938 34.734375 -7.453125 C 35.710938 -8.328125 36.304688 -9.941406 36.515625 -12.296875 L 36.59375 -13.296875 L 37.359375 -13.296875 L 36.90625 0 Z M 3.921875 0 "/></g></g></g></g></g></g></g></g></svg>